<?xml version="1.0" encoding="UTF-8" standalone="no"?>
<!-- Created with matplotlib (http://matplotlib.org/) -->

<svg
   xmlns:dc="http://purl.org/dc/elements/1.1/"
   xmlns:cc="http://creativecommons.org/ns#"
   xmlns:rdf="http://www.w3.org/1999/02/22-rdf-syntax-ns#"
   xmlns:svg="http://www.w3.org/2000/svg"
   xmlns="http://www.w3.org/2000/svg"
   xmlns:xlink="http://www.w3.org/1999/xlink"
   xmlns:sodipodi="http://sodipodi.sourceforge.net/DTD/sodipodi-0.dtd"
   xmlns:inkscape="http://www.inkscape.org/namespaces/inkscape"
   height="216pt"
   version="1.1"
   viewBox="0 0 576 216"
   width="576pt"
   id="svg2"
   inkscape:version="0.91 r13725"
   sodipodi:docname="ch2-step-disc.svg">
  <metadata
     id="metadata371">
    <rdf:RDF>
      <cc:Work
         rdf:about="">
        <dc:format>image/svg+xml</dc:format>
        <dc:type
           rdf:resource="http://purl.org/dc/dcmitype/StillImage" />
      </cc:Work>
    </rdf:RDF>
  </metadata>
  <sodipodi:namedview
     pagecolor="#ffffff"
     bordercolor="#666666"
     borderopacity="1"
     objecttolerance="10"
     gridtolerance="10"
     guidetolerance="10"
     inkscape:pageopacity="0"
     inkscape:pageshadow="2"
     inkscape:window-width="1888"
     inkscape:window-height="1062"
     id="namedview369"
     showgrid="false"
     inkscape:zoom="1.0449467"
     inkscape:cx="169.29729"
     inkscape:cy="64.378375"
     inkscape:window-x="32"
     inkscape:window-y="18"
     inkscape:window-maximized="1"
     inkscape:current-layer="figure_1" />
  <defs
     id="defs4">
    <style
       type="text/css"
       id="style6">
*{stroke-linecap:butt;stroke-linejoin:round;}
  </style>
  </defs>
  <g
     id="figure_1">
    <g
       id="axes_1">
      <g
         id="patch_2">
        <path
           d="M 72 189  L 518.4 189  L 518.4 25.92  L 72 25.92  z "
           style="fill:#eaeaf2;"
           id="path14" />
      </g>
      <g
         id="matplotlib.axis_1">
        <g
           id="xtick_1">
          <g
             id="line2d_1">
            <path
               clip-path="url(#pb3d5075949)"
               d="M 72 189  L 72 25.92  "
               style="fill:none;stroke:#ffffff;stroke-linecap:round;"
               id="path19" />
          </g>
          <g
             id="line2d_2" />
          <g
             id="text_1">
            <!-- $-5.0$ -->
            <defs
               id="defs23">
              <path
                 d="M 65.90625 23  C 67.59375 23 69.40625 23 69.40625 25  C 69.40625 27 67.59375 27 65.90625 27  L 11.796875 27  C 10.09375 27 8.296875 27 8.296875 25  C 8.296875 23 10.09375 23 11.796875 23  z "
                 id="CMSY10-0" />
              <path
                 d="M 11.40625 57.6875  C 12.40625 57.28125 16.5 56 20.703125 56  C 30 56 35.09375 61.109375 38 64.0625  C 38 64.953125 38 65.5 37.40625 65.5  C 37.296875 65.5 37.09375 65.5 36.296875 65.046875  C 32.796875 63.40625 28.703125 62.078125 23.703125 62.078125  C 20.703125 62.078125 16.203125 62.484375 11.296875 64.671875  C 10.203125 65.171875 10 65.171875 9.90625 65.171875  C 9.40625 65.171875 9.296875 65.0625 9.296875 63.078125  L 9.296875 34.421875  C 9.296875 32.640625 9.296875 32.140625 10.296875 32.140625  C 10.796875 32.140625 11 32.34375 11.5 33.03125  C 14.703125 37.515625 19.09375 39.40625 24.09375 39.40625  C 27.59375 39.40625 35.09375 37.21875 35.09375 20.140625  C 35.09375 16.953125 35.09375 11.171875 32.09375 6.578125  C 29.59375 2.484375 25.703125 0.390625 21.40625 0.390625  C 14.796875 0.390625 8.09375 5 6.296875 12.71875  C 6.703125 12.609375 7.5 12.421875 7.90625 12.421875  C 9.203125 12.421875 11.703125 13.125 11.703125 16.21875  C 11.703125 18.90625 9.796875 20 7.90625 20  C 5.59375 20 4.09375 18.59375 4.09375 15.796875  C 4.09375 7.09375 11 -2 21.59375 -2  C 31.90625 -2 41.703125 6.875 41.703125 19.75  C 41.703125 31.71875 33.90625 41 24.203125 41  C 19.09375 41 14.796875 39.109375 11.40625 35.53125  z "
                 id="CMR17-53" />
              <path
                 d="M 18.40625 4.796875  C 18.40625 7.6875 16 9.671875 13.59375 9.671875  C 10.703125 9.671875 8.703125 7.28125 8.703125 4.890625  C 8.703125 2 11.09375 0 13.5 0  C 16.40625 0 18.40625 2.390625 18.40625 4.796875  z "
                 id="CMMI12-58" />
              <path
                 d="M 42 31.640625  C 42 37.75 41.90625 48.125 37.703125 56.109375  C 34 63.109375 28.09375 65.59375 22.90625 65.59375  C 18.09375 65.59375 12 63.40625 8.203125 56.203125  C 4.203125 48.71875 3.796875 39.4375 3.796875 31.640625  C 3.796875 25.953125 3.90625 17.28125 7 9.671875  C 11.296875 -0.609375 19 -2 22.90625 -2  C 27.5 -2 34.5 -0.109375 38.59375 9.375  C 41.59375 16.28125 42 24.359375 42 31.640625  z M 22.90625 -0.40625  C 16.5 -0.40625 12.703125 5.078125 11.296875 12.6875  C 10.203125 18.5625 10.203125 27.15625 10.203125 32.75  C 10.203125 40.4375 10.203125 46.828125 11.5 52.921875  C 13.40625 61.390625 19 64 22.90625 64  C 27 64 32.296875 61.296875 34.203125 53.125  C 35.5 47.4375 35.59375 40.734375 35.59375 32.75  C 35.59375 26.25 35.59375 18.265625 34.40625 12.375  C 32.296875 1.484375 26.40625 -0.40625 22.90625 -0.40625  z "
                 id="CMR17-48" />
            </defs>
            <g
               style="fill:#262626;"
               transform="translate(52.403443 209.836997)scale(0.2 -0.2)"
               id="g29">
              <use
                 transform="scale(0.996264)"
                 xlink:href="#CMSY10-0"
                 id="use31" />
              <use
                 transform="translate(77.487468 0)scale(0.996264)"
                 xlink:href="#CMR17-53"
                 id="use33" />
              <use
                 transform="translate(123.177945 0)scale(0.996264)"
                 xlink:href="#CMMI12-58"
                 id="use35" />
              <use
                 transform="translate(150.275122 0)scale(0.996264)"
                 xlink:href="#CMR17-48"
                 id="use37" />
            </g>
          </g>
        </g>
        <g
           id="xtick_2">
          <g
             id="line2d_3">
            <path
               clip-path="url(#pb3d5075949)"
               d="M 146.4 189  L 146.4 25.92  "
               style="fill:none;stroke:#ffffff;stroke-linecap:round;"
               id="path41" />
          </g>
          <g
             id="line2d_4" />
          <g
             id="text_2">
            <!-- $-2.5$ -->
            <defs
               id="defs45">
              <path
                 d="M 41.703125 15.453125  L 39.90625 15.453125  C 38.90625 8.375 38.09375 7.171875 37.703125 6.5625  C 37.203125 5.765625 30 5.765625 28.59375 5.765625  L 9.40625 5.765625  C 13 9.671875 20 16.75 28.5 24.953125  C 34.59375 30.734375 41.703125 37.53125 41.703125 47.421875  C 41.703125 59.21875 32.296875 66 21.796875 66  C 10.796875 66 4.09375 56.3125 4.09375 47.34375  C 4.09375 43.4375 7 42.9375 8.203125 42.9375  C 9.203125 42.9375 12.203125 43.546875 12.203125 47.03125  C 12.203125 50.109375 9.59375 51 8.203125 51  C 7.59375 51 7 50.90625 6.59375 50.703125  C 8.5 59.21875 14.296875 63.40625 20.40625 63.40625  C 29.09375 63.40625 34.796875 56.515625 34.796875 47.421875  C 34.796875 38.734375 29.703125 31.25 24 24.75  L 4.09375 2.28125  L 4.09375 0  L 39.296875 0  z "
                 id="CMR17-50" />
            </defs>
            <g
               style="fill:#262626;"
               transform="translate(126.803443 209.836997)scale(0.2 -0.2)"
               id="g48">
              <use
                 transform="scale(0.996264)"
                 xlink:href="#CMSY10-0"
                 id="use50" />
              <use
                 transform="translate(77.487468 0)scale(0.996264)"
                 xlink:href="#CMR17-50"
                 id="use52" />
              <use
                 transform="translate(123.177945 0)scale(0.996264)"
                 xlink:href="#CMMI12-58"
                 id="use54" />
              <use
                 transform="translate(150.275122 0)scale(0.996264)"
                 xlink:href="#CMR17-53"
                 id="use56" />
            </g>
          </g>
        </g>
        <g
           id="xtick_3">
          <g
             id="line2d_5">
            <path
               clip-path="url(#pb3d5075949)"
               d="M 220.8 189  L 220.8 25.92  "
               style="fill:none;stroke:#ffffff;stroke-linecap:round;"
               id="path60" />
          </g>
          <g
             id="line2d_6" />
          <g
             id="text_3">
            <!-- $0.0$ -->
            <g
               style="fill:#262626;"
               transform="translate(208.952187 209.836997)scale(0.2 -0.2)"
               id="g64">
              <use
                 transform="scale(0.996264)"
                 xlink:href="#CMR17-48"
                 id="use66" />
              <use
                 transform="translate(45.690477 0)scale(0.996264)"
                 xlink:href="#CMMI12-58"
                 id="use68" />
              <use
                 transform="translate(72.787654 0)scale(0.996264)"
                 xlink:href="#CMR17-48"
                 id="use70" />
            </g>
          </g>
        </g>
        <g
           id="xtick_4">
          <g
             id="line2d_7">
            <path
               clip-path="url(#pb3d5075949)"
               d="M 295.2 189  L 295.2 25.92  "
               style="fill:none;stroke:#ffffff;stroke-linecap:round;"
               id="path74" />
          </g>
          <g
             id="line2d_8" />
          <g
             id="text_4">
            <!-- $2.5$ -->
            <g
               style="fill:#262626;"
               transform="translate(283.352187 209.836997)scale(0.2 -0.2)"
               id="g78">
              <use
                 transform="scale(0.996264)"
                 xlink:href="#CMR17-50"
                 id="use80" />
              <use
                 transform="translate(45.690477 0)scale(0.996264)"
                 xlink:href="#CMMI12-58"
                 id="use82" />
              <use
                 transform="translate(72.787654 0)scale(0.996264)"
                 xlink:href="#CMR17-53"
                 id="use84" />
            </g>
          </g>
        </g>
        <g
           id="xtick_5">
          <g
             id="line2d_9">
            <path
               clip-path="url(#pb3d5075949)"
               d="M 369.6 189  L 369.6 25.92  "
               style="fill:none;stroke:#ffffff;stroke-linecap:round;"
               id="path88" />
          </g>
          <g
             id="line2d_10" />
          <g
             id="text_5">
            <!-- $5.0$ -->
            <g
               style="fill:#262626;"
               transform="translate(357.752187 209.836997)scale(0.2 -0.2)"
               id="g92">
              <use
                 transform="scale(0.996264)"
                 xlink:href="#CMR17-53"
                 id="use94" />
              <use
                 transform="translate(45.690477 0)scale(0.996264)"
                 xlink:href="#CMMI12-58"
                 id="use96" />
              <use
                 transform="translate(72.787654 0)scale(0.996264)"
                 xlink:href="#CMR17-48"
                 id="use98" />
            </g>
          </g>
        </g>
        <g
           id="xtick_6">
          <g
             id="line2d_11">
            <path
               clip-path="url(#pb3d5075949)"
               d="M 444 189  L 444 25.92  "
               style="fill:none;stroke:#ffffff;stroke-linecap:round;"
               id="path102" />
          </g>
          <g
             id="line2d_12" />
          <g
             id="text_6">
            <!-- $7.5$ -->
            <defs
               id="defs106">
              <path
                 d="M 45.09375 61.578125  L 45.09375 63.765625  L 21.59375 63.765625  C 9.90625 63.765625 9.703125 65.078125 9.296875 67  L 7.5 67  L 4.59375 48.34375  L 6.40625 48.34375  C 6.703125 50.234375 7.40625 55.3125 8.59375 57.203125  C 9.203125 58 16.59375 58 18.296875 58  L 40.296875 58  L 29.203125 41.578125  C 21.796875 30.53125 16.703125 15.609375 16.703125 2.578125  C 16.703125 1.390625 16.703125 -2 20.296875 -2  C 23.90625 -2 23.90625 1.390625 23.90625 2.671875  L 23.90625 7.265625  C 23.90625 23.5625 26.703125 34.3125 31.296875 41.1875  z "
                 id="CMR17-55" />
            </defs>
            <g
               style="fill:#262626;"
               transform="translate(432.152187 209.836997)scale(0.2 -0.2)"
               id="g109">
              <use
                 transform="scale(0.996264)"
                 xlink:href="#CMR17-55"
                 id="use111" />
              <use
                 transform="translate(45.690477 0)scale(0.996264)"
                 xlink:href="#CMMI12-58"
                 id="use113" />
              <use
                 transform="translate(72.787654 0)scale(0.996264)"
                 xlink:href="#CMR17-53"
                 id="use115" />
            </g>
          </g>
        </g>
        <g
           id="xtick_7">
          <g
             id="line2d_13">
            <path
               clip-path="url(#pb3d5075949)"
               d="M 518.4 189  L 518.4 25.92  "
               style="fill:none;stroke:#ffffff;stroke-linecap:round;"
               id="path119" />
          </g>
          <g
             id="line2d_14" />
          <g
             id="text_7">
            <!-- $10.0$ -->
            <defs
               id="defs123">
              <path
                 d="M 26.59375 63.40625  C 26.59375 65.5 26.5 65.5 25.09375 65.5  C 21.203125 61.1875 15.296875 59.796875 9.703125 59.796875  C 9.40625 59.796875 8.90625 59.796875 8.796875 59.5  C 8.703125 59.296875 8.703125 59.09375 8.703125 57  C 11.796875 57 17 57.59375 21 59.984375  L 21 7.203125  C 21 3.6875 20.796875 2.5 12.203125 2.5  L 9.203125 2.5  L 9.203125 0  C 14 0 19 0 23.796875 0  C 28.59375 0 33.59375 0 38.40625 0  L 38.40625 2.5  L 35.40625 2.5  C 26.796875 2.5 26.59375 3.59375 26.59375 7.15625  z "
                 id="CMR17-49" />
            </defs>
            <g
               style="fill:#262626;"
               transform="translate(501.983139 209.836997)scale(0.2 -0.2)"
               id="g126">
              <use
                 transform="scale(0.996264)"
                 xlink:href="#CMR17-49"
                 id="use128" />
              <use
                 transform="translate(45.690477 0)scale(0.996264)"
                 xlink:href="#CMR17-48"
                 id="use130" />
              <use
                 transform="translate(91.380954 0)scale(0.996264)"
                 xlink:href="#CMMI12-58"
                 id="use132" />
              <use
                 transform="translate(118.478131 0)scale(0.996264)"
                 xlink:href="#CMR17-48"
                 id="use134" />
            </g>
          </g>
        </g>
        <g
           id="text_8">
          <!-- Time (n) -->
          <defs
             id="defs137">
            <path
               d="M 36.203125 62  L 44.5 62  C 45.703125 62 46.90625 62 48.09375 62  L 60.59375 62  L 60.59375 68.375  L 3.40625 68.375  L 3.40625 62  L 15.90625 62  C 17.09375 62 18.296875 62 19.5 62  L 27.796875 62  L 27.796875 -0.5  L 36.203125 -0.5  z "
               id="CMSS17-84" />
            <path
               d="M 15.296875 65.359375  L 6.90625 65.359375  L 6.90625 57  L 15.296875 57  z M 14.796875 42.796875  L 7.40625 42.796875  L 7.40625 0  L 14.796875 0  z "
               id="CMSS17-105" />
            <path
               d="M 67 29.328125  C 67 36.0625 65.296875 44 54.09375 44  C 46.59375 44 42.09375 39.3125 40.09375 36.421875  C 38.296875 41.71875 34.09375 44 28.09375 44  C 21.296875 44 17 40.125 14.703125 37.328125  L 14.703125 43.09375  L 7.40625 43.09375  L 7.40625 0  L 15 0  L 15 24.359375  C 15 30.296875 17.203125 37.9375 24.296875 37.9375  C 33.40625 37.9375 33.40625 31.5 33.40625 28.578125  L 33.40625 0  L 41 0  L 41 24.359375  C 41 30.296875 43.203125 37.9375 50.296875 37.9375  C 59.40625 37.9375 59.40625 31.5 59.40625 28.578125  L 59.40625 0  L 67 0  z "
               id="CMSS17-109" />
            <path
               d="M 39.09375 21.515625  C 39.09375 24.84375 38.90625 31.296875 35.703125 36.640625  C 32.203125 42.390625 26.5 44 22.203125 44  C 11.796875 44 3 34.1875 3 21.484375  C 3 9.09375 12.09375 -1 23.59375 -1  C 28.09375 -1 33.59375 0.296875 38.59375 3.875  C 38.59375 4.28125 38.40625 6.46875 38.296875 6.5625  C 38.296875 6.765625 38 9.84375 38 10.25  C 33.203125 6.359375 27.703125 5.078125 23.703125 5.078125  C 17.296875 5.078125 10.40625 10.421875 10.09375 21.515625  z M 10.90625 27  C 12.203125 32.5625 16.59375 37.828125 22.203125 37.828125  C 23.703125 37.828125 30.703125 37.828125 32.5 27  z "
               id="CMSS17-101" />
            <path
               d="M 25.203125 74.5  C 19.796875 69.015625 7.40625 56.265625 7.40625 24.8125  C 7.40625 -6.765625 19.796875 -19.421875 25.203125 -25  L 31.296875 -25  C 19 -12.25 15 5.578125 15 24.703125  C 15 43.71875 18.796875 61.65625 31.296875 74.5  z "
               id="CMSS17-40" />
            <path
               d="M 40.90625 29.328125  C 40.90625 35.671875 39.40625 44 28.09375 44  C 21.703125 44 17.5 40.71875 14.703125 37.328125  L 14.703125 43.09375  L 7.40625 43.09375  L 7.40625 0  L 15 0  L 15 24.359375  C 15 30.6875 17.40625 37.9375 24.203125 37.9375  C 33 37.9375 33.296875 32 33.296875 28.578125  L 33.296875 0  L 40.90625 0  z "
               id="CMSS17-110" />
            <path
               d="M 11.296875 -25  C 16.703125 -19.515625 29.09375 -6.765625 29.09375 24.703125  C 29.09375 56.265625 16.703125 68.921875 11.296875 74.5  L 5.203125 74.5  C 17.5 61.75 21.5 43.921875 21.5 24.8125  C 21.5 5.78125 17.703125 -12.15625 5.203125 -25  z "
               id="CMSS17-41" />
          </defs>
          <g
             style="fill:#262626;"
             transform="translate(267.569567 228.9206)scale(0.15 -0.15)"
             id="g146">
            <use
               transform="scale(0.996264)"
               xlink:href="#CMSS17-84"
               id="use148" />
            <use
               transform="translate(63.819454 0)scale(0.996264)"
               xlink:href="#CMSS17-105"
               id="use150" />
            <use
               transform="translate(86.000177 0)scale(0.996264)"
               xlink:href="#CMSS17-109"
               id="use152" />
            <use
               transform="translate(160.229431 0)scale(0.996264)"
               xlink:href="#CMSS17-101"
               id="use154" />
            <use
               transform="translate(233.097366 0)scale(0.996264)"
               xlink:href="#CMSS17-40"
               id="use156" />
            <use
               transform="translate(269.53128 0)scale(0.996264)"
               xlink:href="#CMSS17-110"
               id="use158" />
            <use
               transform="translate(317.736224 0)scale(0.996264)"
               xlink:href="#CMSS17-41"
               id="use160" />
          </g>
        </g>
      </g>
      <g
         id="matplotlib.axis_2">
        <g
           id="ytick_1">
          <g
             id="line2d_15">
            <path
               clip-path="url(#pb3d5075949)"
               d="M 72 189  L 518.4 189  "
               style="fill:none;stroke:#ffffff;stroke-linecap:round;"
               id="path165" />
          </g>
          <g
             id="line2d_16" />
          <g
             id="text_9">
            <!-- $-0.5$ -->
            <g
               style="fill:#262626;"
               transform="translate(25.806886 195.918498)scale(0.2 -0.2)"
               id="g169">
              <use
                 transform="scale(0.996264)"
                 xlink:href="#CMSY10-0"
                 id="use171" />
              <use
                 transform="translate(77.487468 0)scale(0.996264)"
                 xlink:href="#CMR17-48"
                 id="use173" />
              <use
                 transform="translate(123.177945 0)scale(0.996264)"
                 xlink:href="#CMMI12-58"
                 id="use175" />
              <use
                 transform="translate(150.275122 0)scale(0.996264)"
                 xlink:href="#CMR17-53"
                 id="use177" />
            </g>
          </g>
        </g>
        <g
           id="ytick_2">
          <g
             id="line2d_17">
            <path
               clip-path="url(#pb3d5075949)"
               d="M 72 148.23  L 518.4 148.23  "
               style="fill:none;stroke:#ffffff;stroke-linecap:round;"
               id="path181" />
          </g>
          <g
             id="line2d_18" />
          <g
             id="text_10">
            <!-- $0.0$ -->
            <g
               style="fill:#262626;"
               transform="translate(41.304374 155.148498)scale(0.2 -0.2)"
               id="g185">
              <use
                 transform="scale(0.996264)"
                 xlink:href="#CMR17-48"
                 id="use187" />
              <use
                 transform="translate(45.690477 0)scale(0.996264)"
                 xlink:href="#CMMI12-58"
                 id="use189" />
              <use
                 transform="translate(72.787654 0)scale(0.996264)"
                 xlink:href="#CMR17-48"
                 id="use191" />
            </g>
          </g>
        </g>
        <g
           id="ytick_3">
          <g
             id="line2d_19">
            <path
               clip-path="url(#pb3d5075949)"
               d="M 72 107.46  L 518.4 107.46  "
               style="fill:none;stroke:#ffffff;stroke-linecap:round;"
               id="path195" />
          </g>
          <g
             id="line2d_20" />
          <g
             id="text_11">
            <!-- $0.5$ -->
            <g
               style="fill:#262626;"
               transform="translate(41.304374 114.378498)scale(0.2 -0.2)"
               id="g199">
              <use
                 transform="scale(0.996264)"
                 xlink:href="#CMR17-48"
                 id="use201" />
              <use
                 transform="translate(45.690477 0)scale(0.996264)"
                 xlink:href="#CMMI12-58"
                 id="use203" />
              <use
                 transform="translate(72.787654 0)scale(0.996264)"
                 xlink:href="#CMR17-53"
                 id="use205" />
            </g>
          </g>
        </g>
        <g
           id="ytick_4">
          <g
             id="line2d_21">
            <path
               clip-path="url(#pb3d5075949)"
               d="M 72 66.69  L 518.4 66.69  "
               style="fill:none;stroke:#ffffff;stroke-linecap:round;"
               id="path209" />
          </g>
          <g
             id="line2d_22" />
          <g
             id="text_12">
            <!-- $1.0$ -->
            <g
               style="fill:#262626;"
               transform="translate(41.304374 73.608498)scale(0.2 -0.2)"
               id="g213">
              <use
                 transform="scale(0.996264)"
                 xlink:href="#CMR17-49"
                 id="use215" />
              <use
                 transform="translate(45.690477 0)scale(0.996264)"
                 xlink:href="#CMMI12-58"
                 id="use217" />
              <use
                 transform="translate(72.787654 0)scale(0.996264)"
                 xlink:href="#CMR17-48"
                 id="use219" />
            </g>
          </g>
        </g>
        <g
           id="ytick_5">
          <g
             id="line2d_23">
            <path
               clip-path="url(#pb3d5075949)"
               d="M 72 25.92  L 518.4 25.92  "
               style="fill:none;stroke:#ffffff;stroke-linecap:round;"
               id="path223" />
          </g>
          <g
             id="line2d_24" />
          <g
             id="text_13">
            <!-- $1.5$ -->
            <g
               style="fill:#262626;"
               transform="translate(41.304374 32.838498)scale(0.2 -0.2)"
               id="g227">
              <use
                 transform="scale(0.996264)"
                 xlink:href="#CMR17-49"
                 id="use229" />
              <use
                 transform="translate(45.690477 0)scale(0.996264)"
                 xlink:href="#CMMI12-58"
                 id="use231" />
              <use
                 transform="translate(72.787654 0)scale(0.996264)"
                 xlink:href="#CMR17-53"
                 id="use233" />
            </g>
          </g>
        </g>
      </g>
      <g
         id="line2d_25">
        <defs
           id="defs236">
          <path
             d="M 0 3.5  C 0.928211 3.5 1.81853 3.131218 2.474874 2.474874  C 3.131218 1.81853 3.5 0.928211 3.5 0  C 3.5 -0.928211 3.131218 -1.81853 2.474874 -2.474874  C 1.81853 -3.131218 0.928211 -3.5 0 -3.5  C -0.928211 -3.5 -1.81853 -3.131218 -2.474874 -2.474874  C -3.131218 -1.81853 -3.5 -0.928211 -3.5 0  C -3.5 0.928211 -3.131218 1.81853 -2.474874 2.474874  C -1.81853 3.131218 -0.928211 3.5 0 3.5  z "
             id="m4b76507029" />
        </defs>
        <g
           clip-path="url(#pb3d5075949)"
           id="g239">
          <use
             style="fill:#4c72b0;"
             x="72"
             xlink:href="#m4b76507029"
             y="148.23"
             id="use241" />
          <use
             style="fill:#4c72b0;"
             x="101.76"
             xlink:href="#m4b76507029"
             y="148.23"
             id="use243" />
          <use
             style="fill:#4c72b0;"
             x="131.52"
             xlink:href="#m4b76507029"
             y="148.23"
             id="use245" />
          <use
             style="fill:#4c72b0;"
             x="161.28"
             xlink:href="#m4b76507029"
             y="148.23"
             id="use247" />
          <use
             style="fill:#4c72b0;"
             x="191.04"
             xlink:href="#m4b76507029"
             y="148.23"
             id="use249" />
          <use
             style="fill:#4c72b0;"
             x="220.8"
             xlink:href="#m4b76507029"
             y="66.69"
             id="use251" />
          <use
             style="fill:#4c72b0;"
             x="250.56"
             xlink:href="#m4b76507029"
             y="66.69"
             id="use253" />
          <use
             style="fill:#4c72b0;"
             x="280.32"
             xlink:href="#m4b76507029"
             y="66.69"
             id="use255" />
          <use
             style="fill:#4c72b0;"
             x="310.08"
             xlink:href="#m4b76507029"
             y="66.69"
             id="use257" />
          <use
             style="fill:#4c72b0;"
             x="339.84"
             xlink:href="#m4b76507029"
             y="66.69"
             id="use259" />
          <use
             style="fill:#4c72b0;"
             x="369.6"
             xlink:href="#m4b76507029"
             y="66.69"
             id="use261" />
          <use
             style="fill:#4c72b0;"
             x="399.36"
             xlink:href="#m4b76507029"
             y="66.69"
             id="use263" />
          <use
             style="fill:#4c72b0;"
             x="429.12"
             xlink:href="#m4b76507029"
             y="66.69"
             id="use265" />
          <use
             style="fill:#4c72b0;"
             x="458.88"
             xlink:href="#m4b76507029"
             y="66.69"
             id="use267" />
          <use
             style="fill:#4c72b0;"
             x="488.64"
             xlink:href="#m4b76507029"
             y="66.69"
             id="use269" />
          <use
             style="fill:#4c72b0;"
             x="518.4"
             xlink:href="#m4b76507029"
             y="66.69"
             id="use271" />
        </g>
      </g>
      <g
         id="line2d_26">
        <path
           clip-path="url(#pb3d5075949)"
           d="M 72 148.23  L 72 148.23  "
           style="fill:none;stroke:#4c72b0;stroke-linecap:round;stroke-width:1.75;"
           id="path274" />
      </g>
      <g
         id="line2d_27">
        <path
           clip-path="url(#pb3d5075949)"
           d="M 101.76 148.23  L 101.76 148.23  "
           style="fill:none;stroke:#4c72b0;stroke-linecap:round;stroke-width:1.75;"
           id="path277" />
      </g>
      <g
         id="line2d_28">
        <path
           clip-path="url(#pb3d5075949)"
           d="M 131.52 148.23  L 131.52 148.23  "
           style="fill:none;stroke:#4c72b0;stroke-linecap:round;stroke-width:1.75;"
           id="path280" />
      </g>
      <g
         id="line2d_29">
        <path
           clip-path="url(#pb3d5075949)"
           d="M 161.28 148.23  L 161.28 148.23  "
           style="fill:none;stroke:#4c72b0;stroke-linecap:round;stroke-width:1.75;"
           id="path283" />
      </g>
      <g
         id="line2d_30">
        <path
           clip-path="url(#pb3d5075949)"
           d="M 191.04 148.23  L 191.04 148.23  "
           style="fill:none;stroke:#4c72b0;stroke-linecap:round;stroke-width:1.75;"
           id="path286" />
      </g>
      <g
         id="line2d_31">
        <path
           clip-path="url(#pb3d5075949)"
           d="M 220.8 148.23  L 220.8 66.69  "
           style="fill:none;stroke:#4c72b0;stroke-linecap:round;stroke-width:1.75;"
           id="path289" />
      </g>
      <g
         id="line2d_32">
        <path
           clip-path="url(#pb3d5075949)"
           d="M 250.56 148.23  L 250.56 66.69  "
           style="fill:none;stroke:#4c72b0;stroke-linecap:round;stroke-width:1.75;"
           id="path292" />
      </g>
      <g
         id="line2d_33">
        <path
           clip-path="url(#pb3d5075949)"
           d="M 280.32 148.23  L 280.32 66.69  "
           style="fill:none;stroke:#4c72b0;stroke-linecap:round;stroke-width:1.75;"
           id="path295" />
      </g>
      <g
         id="line2d_34">
        <path
           clip-path="url(#pb3d5075949)"
           d="M 310.08 148.23  L 310.08 66.69  "
           style="fill:none;stroke:#4c72b0;stroke-linecap:round;stroke-width:1.75;"
           id="path298" />
      </g>
      <g
         id="line2d_35">
        <path
           clip-path="url(#pb3d5075949)"
           d="M 339.84 148.23  L 339.84 66.69  "
           style="fill:none;stroke:#4c72b0;stroke-linecap:round;stroke-width:1.75;"
           id="path301" />
      </g>
      <g
         id="line2d_36">
        <path
           clip-path="url(#pb3d5075949)"
           d="M 369.6 148.23  L 369.6 66.69  "
           style="fill:none;stroke:#4c72b0;stroke-linecap:round;stroke-width:1.75;"
           id="path304" />
      </g>
      <g
         id="line2d_37">
        <path
           clip-path="url(#pb3d5075949)"
           d="M 399.36 148.23  L 399.36 66.69  "
           style="fill:none;stroke:#4c72b0;stroke-linecap:round;stroke-width:1.75;"
           id="path307" />
      </g>
      <g
         id="line2d_38">
        <path
           clip-path="url(#pb3d5075949)"
           d="M 429.12 148.23  L 429.12 66.69  "
           style="fill:none;stroke:#4c72b0;stroke-linecap:round;stroke-width:1.75;"
           id="path310" />
      </g>
      <g
         id="line2d_39">
        <path
           clip-path="url(#pb3d5075949)"
           d="M 458.88 148.23  L 458.88 66.69  "
           style="fill:none;stroke:#4c72b0;stroke-linecap:round;stroke-width:1.75;"
           id="path313" />
      </g>
      <g
         id="line2d_40">
        <path
           clip-path="url(#pb3d5075949)"
           d="M 488.64 148.23  L 488.64 66.69  "
           style="fill:none;stroke:#4c72b0;stroke-linecap:round;stroke-width:1.75;"
           id="path316" />
      </g>
      <g
         id="line2d_41">
        <path
           clip-path="url(#pb3d5075949)"
           d="M 518.4 148.23  L 518.4 66.69  "
           style="fill:none;stroke:#4c72b0;stroke-linecap:round;stroke-width:1.75;"
           id="path319" />
      </g>
      <g
         id="line2d_42">
        <path
           clip-path="url(#pb3d5075949)"
           d="M 72 148.23  L 518.4 148.23  "
           style="fill:none;stroke:#8172b2;stroke-linecap:round;stroke-width:1.75;"
           id="path322" />
      </g>
      <g
         id="patch_3">
        <path
           d="M 72 189  L 72 25.92  "
           style="fill:none;"
           id="path325" />
      </g>
      <g
         id="patch_4">
        <path
           d="M 518.4 189  L 518.4 25.92  "
           style="fill:none;"
           id="path328" />
      </g>
      <g
         id="patch_5">
        <path
           d="M 72 189  L 518.4 189  "
           style="fill:none;"
           id="path331" />
      </g>
      <g
         id="patch_6">
        <path
           d="M 72 25.92  L 518.4 25.92  "
           style="fill:none;"
           id="path334" />
      </g>
      <g
         id="legend_1">
        <g
           id="line2d_43">
          <g
             id="g338">
            <use
               style="fill:#4c72b0;"
               x="110"
               xlink:href="#m4b76507029"
               y="49.221022"
               id="use340" />
          </g>
        </g>
        <g
           id="line2d_44">
          <path
             d="M 110 58.846022  L 110 49.221022  "
             style="fill:none;stroke:#4c72b0;stroke-linecap:round;stroke-width:1.75;"
             id="path343" />
        </g>
        <g
           id="line2d_45">
          <path
             d="M 90 58.846022  L 130 58.846022  "
             style="fill:none;stroke:#8172b2;stroke-linecap:round;stroke-width:1.75;"
             id="path346" />
        </g>
        <g
           id="text_14">
          <!-- $1[n]$ -->
          <defs
             id="defs349">
            <path
               d="M 23.5 -25  L 23.5 -21.515625  L 14.09375 -21.515625  L 14.09375 71  L 23.5 71  L 23.5 74.484375  L 10.59375 74.484375  L 10.59375 -25  z "
               id="CMR17-91" />
            <path
               d="M 20.59375 29.234375  C 20.796875 29.84375 23.296875 34.828125 27 38.015625  C 29.59375 40.40625 33 42.015625 36.90625 42.015625  C 40.90625 42.015625 42.296875 39.015625 42.296875 35.03125  C 42.296875 29.34375 38.203125 17.96875 36.203125 12.578125  C 35.296875 10.171875 34.796875 8.875 34.796875 7.078125  C 34.796875 2.59375 37.90625 -1 42.703125 -1  C 52 -1 55.5 13.671875 55.5 14.265625  C 55.5 14.765625 55.09375 15.171875 54.5 15.171875  C 53.59375 15.171875 53.5 14.875 53 13.171875  C 50.703125 4.984375 46.90625 1 43 1  C 42 1 40.40625 1 40.40625 4.203125  C 40.40625 6.703125 41.5 9.703125 42.09375 11.09375  C 44.09375 16.609375 48.296875 27.8125 48.296875 33.515625  C 48.296875 39.5 44.796875 44 37.203125 44  C 28.296875 44 23.59375 37.734375 21.796875 35.234375  C 21.5 40.90625 17.40625 44 13 44  C 9.796875 44 7.59375 42.109375 5.90625 38.71875  C 4.09375 35.125 2.703125 29.140625 2.703125 28.734375  C 2.703125 28.34375 3.09375 27.84375 3.796875 27.84375  C 4.59375 27.84375 4.703125 27.9375 5.296875 30.234375  C 6.90625 36.328125 8.703125 42.015625 12.703125 42.015625  C 15 42.015625 15.796875 40.40625 15.796875 37.421875  C 15.796875 35.21875 14.796875 31.328125 14.09375 28.234375  L 11.296875 17.46875  C 10.90625 15.5625 9.796875 11.078125 9.296875 9.28125  C 8.59375 6.6875 7.5 2 7.5 1.5  C 7.5 0.09375 8.59375 -1 10.09375 -1  C 11.296875 -1 12.703125 -0.40625 13.5 1.09375  C 13.703125 1.59375 14.59375 5.09375 15.09375 7.078125  L 17.296875 16.0625  z "
               id="CMMI12-110" />
            <path
               d="M 14.296875 74.484375  L 1.40625 74.484375  L 1.40625 71  L 10.796875 71  L 10.796875 -21.515625  L 1.40625 -21.515625  L 1.40625 -25  L 14.296875 -25  z "
               id="CMR17-93" />
          </defs>
          <g
             style="fill:#262626;"
             transform="translate(146 58.846022)scale(0.2 -0.2)"
             id="g354">
            <use
               transform="scale(0.996264)"
               xlink:href="#CMR17-49"
               id="use356" />
            <use
               transform="translate(45.690477 0)scale(0.996264)"
               xlink:href="#CMR17-91"
               id="use358" />
            <use
               transform="translate(70.561536 0)scale(0.996264)"
               xlink:href="#CMMI12-110"
               id="use360" />
            <use
               transform="translate(128.791583 0)scale(0.996264)"
               xlink:href="#CMR17-93"
               id="use362" />
          </g>
        </g>
      </g>
    </g>
  </g>
  <defs
     id="defs364">
    <clipPath
       id="pb3d5075949">
      <rect
         height="163.08"
         width="446.4"
         x="72"
         y="25.92"
         id="rect367" />
    </clipPath>
  </defs>
</svg>
